<svg id="Layer_1" height="512" viewBox="0 0 512 512" width="512" xmlns="http://www.w3.org/2000/svg" data-name="Layer 1"><path d="m250 433.46v-80.92h12v80.88z" fill="#f4b844"/><path d="m124.37 427.83v-48.85a6 6 0 0 1 6-6h57.9v-20.44h12v26.44a6 6 0 0 1 -6 6h-57.9v42.81z" fill="#f4b844"/><path d="m375.63 427.83v-42.85h-55.06a6 6 0 0 1 -6-6v-26.44h12v20.44h55.06a6 6 0 0 1 6 6v48.81z" fill="#f4b844"/><path d="m472.49 228.08h.22a87.3 87.3 0 0 1 -87.31 87.31h-17.82v-39.27h-223.16v39.27h-17.82a87.31 87.31 0 0 1 -87.31-87.31h.01c-.01-.79-.01-.89-.01-.89v-.04a109.834 109.834 0 0 1 96.8-109.08 125.991 125.991 0 0 1 247.2 34.33c0 .53 0 1.06-.02 1.6a73.319 73.319 0 0 1 14.38-1.08 74.83 74.83 0 0 1 74.84 75.16z" fill="#00acea"/><path d="m256 354.73h-61.73-49.85v-39.34-39.27h223.16v39.27 39.34h-47.01z" fill="#00efd1"/><path d="m304.42 167.95v77.15h-96.84v-77.15h13.13 70.58z" fill="#00efd1"/><path d="m291.29 166.31v1.64h-70.58v-18.54a35.413 35.413 0 0 1 35.29-35.62h.31c19.38 0 34.98 16.02 34.98 35.62z" fill="#00acea"/><g fill="#fedb41"><path d="m297.29 166.31h-12v-16.9c0-16.332-13-29.62-28.98-29.62h-.31a29.49 29.49 0 0 0 -29.29 29.62v16.9h-12v-16.9a41.5 41.5 0 0 1 41.29-41.62h.31c22.6 0 40.98 18.671 40.98 41.62z"/><path d="m255.18 223.2a6 6 0 0 1 -6-6v-11.49a6 6 0 1 1 12 0v11.49a6 6 0 0 1 -6 6z"/><path d="m273.042 298.617a6 6 0 0 0 -8.485 0l-8.557 8.557-8.557-8.557a6 6 0 0 0 -8.485 8.486l8.557 8.557-8.1 8.1a6 6 0 0 0 8.486 8.486l8.1-8.1 8.1 8.1a6 6 0 1 0 8.486-8.486l-8.1-8.1 8.557-8.557a6 6 0 0 0 -.002-8.486z"/><path d="m221.331 298.616a6 6 0 0 0 -8.485 0l-8.551 8.554-8.552-8.556a6 6 0 0 0 -8.486 8.486l8.555 8.557-8.095 8.1a6 6 0 0 0 8.486 8.486l8.092-8.1 8.091 8.094a6 6 0 0 0 8.488-8.482l-8.1-8.1 8.556-8.559a6 6 0 0 0 .001-8.48z"/><path d="m316.188 315.66 8.556-8.559a6 6 0 0 0 -8.488-8.482l-8.551 8.554-8.552-8.556a6 6 0 1 0 -8.486 8.486l8.555 8.557-8.095 8.1a6 6 0 0 0 8.486 8.486l8.092-8.1 8.091 8.094a6 6 0 0 0 8.488-8.482z"/><path d="m256 429.42a31.06 31.06 0 1 0 21.963 9.1 30.856 30.856 0 0 0 -21.963-9.1z"/><path d="m130.37 423.79a31.063 31.063 0 1 0 21.963 9.1 30.861 30.861 0 0 0 -21.963-9.1z"/><path d="m403.592 432.887a31.063 31.063 0 1 0 0 43.925 30.857 30.857 0 0 0 0-43.925z"/></g></svg>