<?xml version="1.0" encoding="iso-8859-1"?>
<!-- Generator: Adobe Illustrator 19.0.0, SVG Export Plug-In . SVG Version: 6.00 Build 0)  -->
<svg version="1.1" id="Capa_1" xmlns="http://www.w3.org/2000/svg" xmlns:xlink="http://www.w3.org/1999/xlink" x="0px" y="0px"
	 viewBox="0 0 433.94 433.94" style="enable-background:new 0 0 433.94 433.94;" xml:space="preserve">
<g>
	<path style="fill:#FEDB41;" d="M398.76,213.72H295.18v-0.02v-49.65h103.58v49.65L398.76,213.72z"/>
	<path style="fill:#FEDB41;" d="M324.68,78.4c0.44-1.882,0.662-3.808,0.66-5.74V32.48h41.31v39.851
		c-0.002,2.05,0.25,4.092,0.75,6.08h-42.7L324.68,78.4z"/>
</g>
<g>
	<path style="fill:#46C43D;" d="M366.65,9.65v22.83h-41.31V9.65c0.003-3.465,2.815-6.272,6.28-6.27h28.76
		C363.842,3.382,366.648,6.188,366.65,9.65z"/>
	<path style="fill:#46C43D;" d="M324.7,78.41h42.7c0.477,1.877,1.161,3.695,2.04,5.42l23.74,46.04c3.668,7.112,5.582,14.998,5.58,23
		v11.18H295.18v-11.84c0.002-7.579,1.718-15.059,5.02-21.88l22.63-46.73c0.81-1.658,1.427-3.402,1.84-5.2h0.01L324.7,78.41z"/>
</g>
<g>
	<path style="fill:#FEDB41;" d="M268.76,213.72H165.18v-0.02v-49.65h103.58v49.65V213.72z"/>
	<path style="fill:#FEDB41;" d="M194.68,78.4c0.44-1.882,0.662-3.808,0.66-5.74V32.48h41.31v39.851
		c-0.002,2.05,0.25,4.092,0.75,6.08h-42.7L194.68,78.4z"/>
</g>
<g>
	<path style="fill:#46C43D;" d="M230.38,3.38c3.462,0.002,6.268,2.808,6.27,6.27v22.83h-41.31V9.65
		c0.003-3.465,2.815-6.272,6.28-6.27H230.38z"/>
	<path style="fill:#46C43D;" d="M194.7,78.41h42.7c0.477,1.877,1.161,3.695,2.04,5.42l23.74,46.04c3.668,7.112,5.582,14.998,5.58,23
		v11.18H165.18v-11.84c0.002-7.579,1.718-15.059,5.02-21.88l22.63-46.73c0.81-1.658,1.427-3.402,1.84-5.2h0.01L194.7,78.41z"/>
</g>
<g>
	<path style="fill:#FEDB41;" d="M138.76,213.72H35.18v-0.02v-49.65h103.58v49.65V213.72z"/>
	<path style="fill:#FEDB41;" d="M64.68,78.4c0.44-1.882,0.662-3.808,0.66-5.74V32.48h41.31v39.851c-0.002,2.05,0.25,4.092,0.75,6.08
		H64.7L64.68,78.4z"/>
</g>
<g>
	<path style="fill:#46C43D;" d="M106.65,9.65v22.83H65.34V9.65c0.003-3.465,2.815-6.272,6.28-6.27h28.76
		C103.842,3.382,106.648,6.188,106.65,9.65z"/>
	<path style="fill:#46C43D;" d="M64.7,78.41h42.7c0.477,1.877,1.161,3.695,2.04,5.42l23.74,46.04c3.668,7.112,5.582,14.998,5.58,23
		v11.18H35.18v-11.84c0.002-7.579,1.718-15.059,5.02-21.88L62.83,83.6c0.81-1.658,1.427-3.402,1.84-5.2h0.01L64.7,78.41z"/>
</g>
<path style="fill:#00ACEA;" d="M433.94,203.72v186.84c0,22.091-17.909,40-40,40H40c-22.091,0-40-17.909-40-40V203.72H433.94z"/>
<path style="fill:#00EFD1;" d="M272.47,261.231c8.837,0,16,7.163,16,16v21.49c0,8.837-7.163,16-16,16h-111c-8.837,0-16-7.163-16-16
	v-21.49c0-8.837,7.163-16,16-16H272.47z"/>
<g>
</g>
<g>
</g>
<g>
</g>
<g>
</g>
<g>
</g>
<g>
</g>
<g>
</g>
<g>
</g>
<g>
</g>
<g>
</g>
<g>
</g>
<g>
</g>
<g>
</g>
<g>
</g>
<g>
</g>
</svg>
