<?xml version="1.0" encoding="utf-8"?>
<!-- Generator: Adobe Illustrator 26.0.2, SVG Export Plug-In . SVG Version: 6.00 Build 0)  -->
<svg version="1.1" id="Layer_1" xmlns="http://www.w3.org/2000/svg" xmlns:xlink="http://www.w3.org/1999/xlink" x="0px" y="0px"
	 viewBox="0 0 24 24" style="enable-background:new 0 0 24 24;" xml:space="preserve">
<style type="text/css">
	.st0{display:none;}
	.st1{display:inline;fill:none;}
	.st2{fill:#ffffff;}
</style>
<g class="st0">
	<rect class="st1" width="24" height="24"/>
</g>
<path class="st2" d="M19.4,7.7c-0.5,2.5-2.3,4.5-4.6,5.5c1.1,1,1.5,2.6,1.1,4.1c-1.4,3.9-7,5.1-8.6,4.7S5,18.5,6.5,18.2
	c0,0.2-0.8,1.1,0,1.4c2.7,0.7,9-2.6,8.1-4.7c-0.4-0.5-1-0.9-1.7-1c-0.5,0.2-1,0.2-1.6,0.2c-0.2,0-0.4-0.1-0.6-0.2h-0.2
	c-0.6,1.4-1.1,2.9-1.4,4.4c-0.1,0.8-1.7-0.6-1.8-1.2C6.9,15.6,9.9,7,11,6c0.4-0.3,3.2,0.6,2.9,0.9c-1.1,1.5-2,3.2-2.6,5
	c3-0.7,7.5-5,6.3-6.7C16,2.8,7.1,5.6,6.1,9.7C5.9,10.4,4.2,9,4.5,7.6C5.3,4.5,10.1,2,14.2,2c2.7-0.3,5,1.7,5.3,4.4
	C19.5,6.8,19.5,7.2,19.4,7.7z"/>
</svg>
