<?xml version="1.0" encoding="iso-8859-1"?>
<!-- Generator: Adobe Illustrator 19.0.0, SVG Export Plug-In . SVG Version: 6.00 Build 0)  -->
<svg version="1.1" id="Capa_1" xmlns="http://www.w3.org/2000/svg" xmlns:xlink="http://www.w3.org/1999/xlink" x="0px" y="0px"
	 viewBox="0 0 409.76 409.76" style="enable-background:new 0 0 409.76 409.76;" xml:space="preserve">
<path style="fill:#00EFD1;" d="M409.3,101.67v282.04c0.005,11.041-8.941,19.995-19.982,20c-1.748,0.001-3.489-0.228-5.178-0.68
	l-102.87-27.48V52.54l113.12,29.79C403.176,84.642,409.299,92.585,409.3,101.67L409.3,101.67z"/>
<path style="fill:#FEDB41;" d="M281.27,52.54v323.01l-137.32,34.21V188.07l22.48-22.16c24.266-24.085,34.01-59.193,25.63-92.34
	l0.07-0.02L281.27,52.54z"/>
<path style="fill:#00ACEA;" d="M6.63,131.5c-4.081-10.937-6.171-22.516-6.17-34.19C0.4,71.486,10.724,46.723,29.11,28.59
	c38.12-38.12,99.69-38.12,137.32,0c37.92,37.673,38.12,98.953,0.448,136.873c-0.149,0.15-0.298,0.299-0.448,0.447l-22.48,22.16
	l-46.91,46.25l-68.42-68.41C18.94,156.123,11.445,144.396,6.63,131.5L6.63,131.5z M138.08,96.03c0-22.13-17.94-40.07-40.07-40.07
	S57.94,73.9,57.94,96.03s17.94,40.07,40.07,40.07S138.08,118.16,138.08,96.03L138.08,96.03L138.08,96.03z"/>
<path style="fill:#00EFD1;" d="M143.95,188.07v221.69L21.8,379.33c-8.912-2.222-15.167-10.225-15.17-19.41V131.5
	c4.815,12.896,12.31,24.623,21.99,34.41l68.42,68.41L143.95,188.07z"/>
<g>
</g>
<g>
</g>
<g>
</g>
<g>
</g>
<g>
</g>
<g>
</g>
<g>
</g>
<g>
</g>
<g>
</g>
<g>
</g>
<g>
</g>
<g>
</g>
<g>
</g>
<g>
</g>
<g>
</g>
</svg>
