<svg height="481pt" viewBox="0 -49 481.95484 481" width="481pt" xmlns="http://www.w3.org/2000/svg"><path d="m251.121094 353.476562v-238.160156c.042968-14.730468 11.96875-26.660156 26.699218-26.710937h177.429688c14.726562.058593 26.652344 11.984375 26.699219 26.710937v248.050782c.117187 5.308593-1.914063 10.441406-5.636719 14.230468-3.726562 3.785156-8.820312 5.90625-14.132812 5.878906h-184.359376c-14.726562-.046874-26.652343-11.972656-26.699218-26.699218zm204-18.308593v-220.730469h-177.160156v220.730469zm0 0" fill="#f4b844"/><path d="m277.960938 114.4375h177.160156v220.730469h-177.160156zm0 0" fill="#00efd1"/><path d="m432.371094 39.355469v49.25h-38.371094v-47.007813h-335.089844v243.101563h-38.371094v-245.34375c.003907-21.46875 17.410157-38.875 38.882813-38.878907h334.066406c21.472657.003907 38.878907 17.410157 38.882813 38.878907zm0 0" fill="#00acea"/><path d="m394 41.597656v47.007813h-116.179688c-14.730468.050781-26.65625 11.980469-26.699218 26.710937v190.472656h-45.222656c-10.859376 0-21.222657-4.539062-28.589844-12.523437l-7.886719-8.566406h-110.511719v-243.101563zm0 0" fill="#00efd1"/><g fill="#fedb41"><path d="m251.121094 305.789062v47.6875h-212.242188c-21.472656 0-38.87499975-17.40625-38.878906-38.878906v-29.898437h169.421875l7.886719 8.566406c7.367187 7.984375 17.730468 12.523437 28.589844 12.523437zm0 0"/><path d="m374.910156 366.988281h-16.75c-4.417968 0-8-3.582031-8-8s3.582032-8 8-8h16.75c4.417969 0 8 3.582031 8 8s-3.582031 8-8 8zm0 0"/></g></svg>