<svg id="Layer_1" height="512" viewBox="0 0 512 512" width="512" xmlns="http://www.w3.org/2000/svg" data-name="Layer 1"><path d="m479.61 434.1a32.183 32.183 0 0 1 1.21 44.22c-.39.43-.8.85-1.21 1.26l-.03.03a32.181 32.181 0 0 1 -45.5 0l-94.12-94.08 8.97-8.97 27.8-27.79 8.76-8.75z" fill="#f4b844"/><path d="m376.73 348.77-27.8 27.79-.01-.01-25.54-25.52-.03-.04a185.726 185.726 0 0 0 27.79-27.78l.04.03 25.54 25.52z" fill="#fedb41"/><path d="m392.03 207.41a183.588 183.588 0 0 1 -40.89 115.8 185.726 185.726 0 0 1 -27.79 27.78 183.768 183.768 0 0 1 -115.85 40.87c-101.91 0-184.53-82.58-184.53-184.45s82.62-184.44 184.53-184.44 184.53 82.58 184.53 184.44zm-47.08 0a137.45 137.45 0 1 0 -137.45 137.39 137.418 137.418 0 0 0 137.45-137.39z" fill="#00acea"/><path d="m207.5 70.03a137.385 137.385 0 1 1 -137.45 137.38 137.418 137.418 0 0 1 137.45-137.38z" fill="#00efd1"/><path d="m265.89 260.52h-90.64v-.01-131.83h99.35v131.84z" fill="#fedb41"/><path d="m265.89 260.52v32.64l-109.08.01a16.32 16.32 0 0 1 -16.32-16.33c0-.28.01-.56.02-.84a16.32 16.32 0 0 1 16.3-15.48z" fill="#f4b844"/><path d="m175.25 260.51v.01h-18.44a16.32 16.32 0 0 0 -16.3 15.48h-.02v-130.99a16.326 16.326 0 0 1 16.32-16.33h18.44z" fill="#00acea"/></svg>