<svg height="388pt" viewBox="0 -31 388.09 388" width="388pt" xmlns="http://www.w3.org/2000/svg"><path d="m388.089844 86.625v211.21875c0 15.511719-11.980469 28.082031-26.761719 28.082031h-334.558594c-14.78125 0-26.769531-12.570312-26.769531-28.082031v-211.21875zm0 0" fill="#00efd1"/><path d="m388.089844 28.125v58.5h-388.089844v-58.5c0-15.511719 11.988281-28.078125 26.769531-28.078125h334.558594c14.78125 0 26.761719 12.566406 26.761719 28.078125zm-214.109375 14.039062c0-10.339843-7.992188-18.71875-17.851563-18.71875s-17.839844 8.378907-17.839844 18.71875c0 10.339844 7.992188 18.722657 17.839844 18.722657 9.851563 0 17.851563-8.382813 17.851563-18.722657zm-57.992188 0c0-10.339843-7.988281-18.71875-17.847656-18.71875s-17.839844 8.378907-17.839844 18.71875c0 10.339844 7.988281 18.722657 17.839844 18.722657 9.847656 0 17.847656-8.382813 17.847656-18.722657zm-58 0c0-10.339843-7.976562-18.71875-17.839843-18.71875-9.859376 0-17.839844 8.378907-17.839844 18.71875 0 10.339844 7.992187 18.722657 17.839844 18.722657 9.851562 0 17.839843-8.382813 17.839843-18.722657zm0 0" fill="#00acea"/><g fill="#00efd1"><path d="m232.480469 185.816406v1.070313h-76.859375v-20.691407c-.125-21.34375 17.085937-38.746093 38.429687-38.859374 10.210938.015624 19.988281 4.128906 27.140625 11.417968 7.234375 7.300782 11.289063 17.164063 11.289063 27.441406zm0 0"/><path d="m156.128906 23.445312c9.859375 0 17.851563 8.378907 17.851563 18.71875 0 10.339844-7.992188 18.722657-17.851563 18.722657s-17.839844-8.382813-17.839844-18.722657c0-10.339843 7.992188-18.71875 17.839844-18.71875zm0 0"/><path d="m98.140625 23.445312c9.859375 0 17.847656 8.378907 17.847656 18.71875 0 10.339844-7.988281 18.722657-17.847656 18.722657s-17.839844-8.382813-17.839844-18.722657c0-10.339843 7.988281-18.71875 17.839844-18.71875zm0 0"/><path d="m57.988281 42.164062c0-10.335937-7.984375-18.71875-17.839843-18.71875-9.851563 0-17.839844 8.382813-17.839844 18.71875 0 10.339844 7.988281 18.722657 17.839844 18.722657 9.855468 0 17.839843-8.382813 17.839843-18.722657zm0 0"/></g><path d="m232.050781 192.816406c3.863281 0 7-3.136718 7-7v-19.621094c.105469-12.097656-4.609375-23.742187-13.101562-32.359374-8.324219-8.632813-19.800781-13.507813-31.792969-13.5-25.050781 0-45.109375 20.570312-45.109375 45.859374v19.617188c0 3.867188 3.136719 7 7 7 3.867187 0 7-3.132812 7-7v-19.617188c0-17.566406 13.886719-31.859374 31.214844-31.859374 8.25.007812 16.140625 3.378906 21.839843 9.339843 5.863282 6.015625 9.082032 14.121094 8.949219 22.519531v19.621094c0 3.863282 3.132813 7 7 7zm0 0" fill="#f4b844"/><path d="m193.050781 245.644531c.261719.027344.523438.042969.789063.039063 5.121094.046875 9.335937-4.011719 9.488281-9.132813.152344-5.117187-3.816406-9.417969-8.933594-9.675781-5.113281-.257812-9.496093 3.617188-9.859375 8.726562-.367187 5.105469 3.417969 9.570313 8.515625 10.042969zm60.007813-38.757812v57.75c-.003906 11.042969-8.953125 19.996093-20 20h-78.019532c-11.042968-.003907-19.996093-8.957031-20-20v-57.75c0-11.046875 8.957032-20 20-20h78.019532c11.046875 0 20 8.953125 20 20zm0 0" fill="#fedb41"/><path d="m193.839844 220.035156c-7.464844-.011718-13.980469 5.046875-15.820313 12.28125-1.839843 7.234375 1.46875 14.792969 8.03125 18.347656v9.320313c0 3.867187 3.132813 7 7 7 3.863281 0 7-3.132813 7-7v-8.535156c7.207031-2.964844 11.3125-10.613281 9.800781-18.257813-1.511718-7.644531-8.21875-13.15625-16.011718-13.15625zm0 14c1.023437.003906 1.925781.675782 2.222656 1.65625.292969.980469-.085938 2.039063-.9375 2.605469-.929688-.289063-1.914062-.378906-2.882812-.261719-.460938-.433594-.726563-1.035156-.730469-1.671875 0-1.285156 1.042969-2.328125 2.328125-2.328125zm0 0" fill="#f4b844"/></svg>