<?xml version="1.0"?>
<svg xmlns="http://www.w3.org/2000/svg" id="Layer_1" data-name="Layer 1" viewBox="0 0 512 512" width="512" height="512"><title>Photos</title><polygon points="486.29 237.27 486.29 308.48 453.58 308.48 244.5 308.48 318.59 235.67 387.88 167.56 486.29 237.27" style="fill:#00efd1"/><path d="M156.56,105.38V72.67H486.29v164.6l-98.41-69.71-69.29,68.11-.03-.03-80.78-39.37-81.22,47.1Z" style="fill:#fedb41"/><polygon points="244.5 308.48 453.58 308.48 453.58 308.64 453.58 341.19 420.86 341.19 123.85 341.19 123.85 138.09 123.85 105.38 156.56 105.38 156.56 243.37 156.56 308.48 244.5 308.48" style="fill:#f4b844"/><polygon points="420.86 341.36 420.86 373.91 388.15 373.91 91.14 373.91 91.14 170.81 91.14 138.09 123.85 138.09 123.85 341.19 420.86 341.19 420.86 341.36" style="fill:#00efd1"/><polygon points="58.42 203.52 58.42 170.81 91.14 170.81 91.14 373.91 388.15 373.91 388.15 374.07 388.15 406.62 355.44 406.62 58.42 406.62 58.42 203.52" style="fill:#f4b844"/><polygon points="355.44 406.78 355.44 439.33 25.71 439.33 25.71 203.52 58.42 203.52 58.42 406.62 355.44 406.62 355.44 406.78" style="fill:#00efd1"/><path d="M303.81,124.09a25.835,25.835,0,1,1-25.84,25.84A25.833,25.833,0,0,1,303.81,124.09Z" style="fill:#00efd1"/><polygon points="318.59 235.67 244.5 308.48 156.56 308.48 156.56 243.37 237.78 196.27 318.56 235.64 318.59 235.67" style="fill:#00acea"/></svg>
