<svg height="474pt" viewBox="0 -1 474.32 474" width="474pt" xmlns="http://www.w3.org/2000/svg"><path d="m474.320312.160156v161.988282h-111.808593l-65.28125 47.042968v-47.042968h-40.800781v-161.988282zm0 0" fill="#fedb41"/><path d="m452.628906 318.089844v75h-452.628906v-75zm0 0" fill="#00acea"/><path d="m452.628906 162.410156v155.679688h-452.628906v-286.191406h256.429688v130.25h40.800781v47.042968l65.28125-47.042968h90.117187zm0 0" fill="#00efd1"/><path d="m346.371094 58.738281 10.4375 36.839844h-20.878906zm0 0" fill="#fedb41"/><path d="m286.320312 393.089844 20 71.332031h-160l20-71.332031zm0 0" fill="#fedb41"/><g fill="#f4b844"><path d="m339.851562 472.421875h-227.0625c-4.417968 0-8-3.582031-8-8 0-4.421875 3.582032-8 8-8h227.0625c4.417969 0 8 3.578125 8 8 0 4.417969-3.582031 8-8 8zm0 0"/><path d="m415.730469 43.980469v78c0 3.238281-3.960938 4.917969-7.800781 4.917969-3.960938 0-7.800782-1.679688-7.800782-4.917969v-78c0-3.359375 3.839844-4.800781 7.800782-4.800781 3.839843 0 7.800781 1.441406 7.800781 4.800781zm0 0"/><path d="m379.609375 119.21875c.125.390625.207031.792969.242187 1.203125 0 3.71875-5.640624 6.476563-9.839843 6.476563-2.640625 0-4.683594-.839844-5.28125-3.117188l-4.558594-15.960938h-27.480469l-4.5625 15.960938c-.597656 2.277344-2.640625 3.117188-5.277344 3.117188-4.203124 0-9.839843-2.636719-9.839843-6.476563.042969-.40625.121093-.808594.238281-1.203125l23.160156-75.480469c1.078125-3.597656 5.519532-5.277343 9.960938-5.277343 4.558594 0 9 1.679687 10.078125 5.277343zm-22.800781-23.640625-10.4375-36.839844-10.441406 36.839844zm0 0"/></g></svg>