<svg height="457pt" viewBox="0 -15 457.98 457" width="457pt" xmlns="http://www.w3.org/2000/svg"><path d="m457.980469 426.691406v.597656h-457.980469v-.597656h.320312l157.417969-148.203125.480469-.519531 70.769531 66.121094 73.351563-68.539063.410156.4375 154.871094 150.703125zm0 0" fill="#f4b844"/><path d="m457.980469 130.101562v296.589844h-.359375l-154.871094-150.703125-.410156-.4375zm0 0" fill="#fedb41"/><path d="m457.980469 129.691406v.410156l-155.640625 145.449219-73.351563 68.539063-70.769531-66.121094-158.21875-147.828125v-.449219h101.03125c.679688 70.183594 57.769531 126.726563 127.957031 126.726563 70.191407 0 127.28125-56.542969 127.960938-126.726563zm0 0" fill="#00acea"/><path d="m356.960938 128.460938c0 .410156 0 .820312-.011719 1.230468-.679688 70.183594-57.769531 126.726563-127.960938 126.726563-70.1875 0-127.277343-56.542969-127.957031-126.726563-.011719-.410156-.011719-.820312-.011719-1.230468 0-70.675782 57.292969-127.972657 127.96875-127.972657s127.972657 57.296875 127.972657 127.972657zm0 0" fill="#00efd1"/><g fill="#fedb41"><path d="m0 130.140625 158.21875 147.828125-.480469.519531-157.417969 148.203125h-.320312zm0 0"/><path d="m235.988281 179.410156h-14v-24.96875c-.070312-11.671875 7.382813-22.058594 18.464844-25.722656 17.914063-5.863281 28.515625-24.296875 24.574219-42.726562-3.945313-18.433594-21.164063-30.914063-39.90625-28.933594-18.742188 1.984375-32.96875 17.792968-32.96875 36.640625v7h-14v-7c.003906-26.007813 19.632812-47.820313 45.492187-50.554688 25.863281-2.738281 49.621094 14.488281 55.066407 39.917969 5.445312 25.429688-9.183594 50.871094-33.898438 58.960938-5.324219 1.789062-8.886719 6.804687-8.824219 12.417968zm0 0"/><path d="m221.988281 191.519531h14v21.402344h-14zm0 0"/></g></svg>